<?xml version="1.0" encoding="UTF-8" standalone="no"?> <!-- Created with Vectornator for iOS (http://vectornator.io/) --><!DOCTYPE svg PUBLIC "-//W3C//DTD SVG 1.1//EN" "http://www.w3.org/Graphics/SVG/1.1/DTD/svg11.dtd">
<svg height="100%" style="fill-rule:evenodd;clip-rule:evenodd;stroke-linecap:round;stroke-linejoin:round;" xmlns:xlink="http://www.w3.org/1999/xlink" xmlns="http://www.w3.org/2000/svg" xml:space="preserve" width="100%" xmlns:vectornator="http://vectornator.io" version="1.1" viewBox="0 0 645 176">
<metadata>
<vectornator:setting key="DynamicGuides" value="1"/>
<vectornator:setting key="Units" value="Points"/>
<vectornator:setting key="GridSpacing" value="36"/>
<vectornator:setting key="SnapToGuides" value="1"/>
<vectornator:setting key="RulersVisible" value="1"/>
</metadata>
<defs/>
<g id="g10" vectornator:layerName="g10">
<g opacity="1">
<g opacity="1">
<path d="M160.897+81.7614L160.897+42.7614L169.571+42.7614L169.571+81.7614L160.897+81.7614Z" opacity="1" fill="#292827"/>
<path d="M182.591+81.7614L182.591+51.4146L191.244+51.4146L191.244+55.7614C191.42+54.2989+191.87+53.2088+192.595+52.4911C193.319+51.7734+194.318+51.4146+195.591+51.4146L199.938+51.4146C202.308+51.4146+204.342+52.2711+206.042+53.9841C207.741+55.6971+208.591+57.7385+208.591+60.1083L208.591+81.7614L199.938+81.7614L199.938+60.1083C199.938+58.9166+199.508+57.8942+198.648+57.0411C197.788+56.188+196.769+55.7614+195.591+55.7614C194.399+55.7614+193.377+56.188+192.524+57.0411C191.671+57.8942+191.244+58.9166+191.244+60.1083L191.244+81.7614L182.591+81.7614Z" opacity="1" fill="#292827"/>
<path d="M217.244+81.7614L217.244+51.4146L225.897+51.4146L225.897+55.7614C226.073+54.2989+226.523+53.2088+227.248+52.4911C227.972+51.7734+228.971+51.4146+230.244+51.4146L234.591+51.4146C236.961+51.4146+238.995+52.2711+240.695+53.9841C242.394+55.6971+243.244+57.7385+243.244+60.1083L243.244+81.7614L234.591+81.7614L234.591+60.1083C234.591+58.9166+234.161+57.8942+233.301+57.0411C232.441+56.188+231.422+55.7614+230.244+55.7614C229.052+55.7614+228.03+56.188+227.177+57.0411C226.324+57.8942+225.897+58.9166+225.897+60.1083L225.897+81.7614L217.244+81.7614Z" opacity="1" fill="#292827"/>
<path d="M256.203+81.7614L256.203+47.1083L247.55+47.1083L247.55+42.7614L273.55+42.7614L273.55+47.1083L264.897+47.1083L264.897+81.7614L256.203+81.7614Z" opacity="1" fill="#292827"/>
<path d="M303.897+68.7614L286.55+68.7614L286.55+73.1083C286.55+74.2729+286.973+75.2817+287.82+76.1349C288.666+76.988+289.692+77.4146+290.897+77.4146L295.244+77.4146C298.115+77.4146+299.55+75.9791+299.55+73.1083L303.897+73.1083C303.22+78.8771+300.336+81.7614+295.244+81.7614L286.55+81.7614C284.18+81.7614+282.146+80.9117+280.446+79.2122C278.747+77.5127+277.897+75.4781+277.897+73.1083L277.897+60.1083C277.897+57.7114+278.75+55.6633+280.457+53.9638C282.163+52.2643+284.194+51.4146+286.55+51.4146L295.244+51.4146C297.614+51.4146+299.648+52.2711+301.348+53.9841C303.047+55.6971+303.897+57.7385+303.897+60.1083L303.897+68.7614ZM286.55+64.4146L295.244+64.4146L295.244+60.1083C295.244+58.9166+294.814+57.8942+293.954+57.0411C293.094+56.188+292.075+55.7614+290.897+55.7614C289.705+55.7614+288.683+56.188+287.83+57.0411C286.977+57.8942+286.55+58.9166+286.55+60.1083L286.55+64.4146Z" opacity="1" fill="#292827"/>
<path d="M334.203+60.1083L329.897+60.1083C329.559+57.2104+328.11+55.7614+325.55+55.7614C324.359+55.7614+323.336+56.188+322.483+57.0411C321.63+57.8942+321.203+58.9166+321.203+60.1083L321.203+73.1083C321.203+74.2729+321.627+75.2817+322.473+76.1349C323.319+76.988+324.345+77.4146+325.55+77.4146C328.11+77.4146+329.559+75.9791+329.897+73.1083L334.203+73.1083C333.851+78.8771+330.967+81.7614+325.55+81.7614L321.203+81.7614C318.834+81.7614+316.799+80.9117+315.099+79.2122C313.4+77.5127+312.55+75.4781+312.55+73.1083L312.55+60.1083C312.55+57.7114+313.403+55.6633+315.11+53.9638C316.816+52.2643+318.847+51.4146+321.203+51.4146L325.55+51.4146C330.994+51.4146+333.878+54.3125+334.203+60.1083Z" opacity="1" fill="#292827"/>
<path d="M342.897+81.7614L342.897+42.7614L351.55+42.7614L351.55+55.7614C351.726+54.2989+352.177+53.2088+352.901+52.4911C353.626+51.7734+354.624+51.4146+355.897+51.4146L360.244+51.4146C362.614+51.4146+364.648+52.2711+366.348+53.9841C368.047+55.6971+368.897+57.7385+368.897+60.1083L368.897+81.7614L360.244+81.7614L360.244+60.1083C360.244+58.9166+359.814+57.8942+358.954+57.0411C358.094+56.188+357.075+55.7614+355.897+55.7614C354.705+55.7614+353.683+56.188+352.83+57.0411C351.977+57.8942+351.55+58.9166+351.55+60.1083L351.55+81.7614L342.897+81.7614Z" opacity="1" fill="#292827"/>
<path d="M416.246+73.1083C415.866+78.8771+412.982+81.7614+407.592+81.7614L398.899+81.7614C396.529+81.7614+394.494+80.9117+392.795+79.2122C391.095+77.5127+390.246+75.4781+390.246+73.1083L390.246+51.4146C390.246+49.0854+391.082+47.0609+392.754+45.3411C394.427+43.6213+396.475+42.7614+398.899+42.7614L407.592+42.7614C413.036+42.7614+415.921+45.6458+416.246+51.4146L411.899+51.4146C411.56+48.5437+410.125+47.1083+407.592+47.1083L403.246+47.1083C402.054+47.1083+401.032+47.5315+400.178+48.3778C399.325+49.2242+398.899+50.2364+398.899+51.4146L398.899+73.1083C398.899+74.2729+399.322+75.2817+400.168+76.1349C401.015+76.988+402.04+77.4146+403.246+77.4146L407.592+77.4146C410.138+77.4146+411.574+75.9791+411.899+73.1083L416.246+73.1083Z" opacity="1" fill="#292827"/>
<path d="M433.552+51.4146L442.246+51.4146C444.615+51.4146+446.65+52.2711+448.349+53.9841C450.049+55.6971+450.899+57.7385+450.899+60.1083L450.899+73.1083C450.899+75.451+450.049+77.4789+448.349+79.1919C446.65+80.9049+444.615+81.7614+442.246+81.7614L433.552+81.7614C431.182+81.7614+429.147+80.9117+427.448+79.2122C425.748+77.5127+424.899+75.4781+424.899+73.1083L424.899+60.1083C424.899+57.7114+425.752+55.6633+427.458+53.9638C429.164+52.2643+431.196+51.4146+433.552+51.4146ZM433.552+60.1083L433.552+73.1083C433.552+74.2729+433.975+75.2817+434.821+76.1349C435.668+76.988+436.693+77.4146+437.899+77.4146C439.104+77.4146+440.13+76.988+440.976+76.1349C441.822+75.2817+442.246+74.2729+442.246+73.1083L442.246+60.1083C442.246+58.9166+441.816+57.8942+440.956+57.0411C440.096+56.188+439.077+55.7614+437.899+55.7614C436.707+55.7614+435.685+56.188+434.832+57.0411C433.978+57.8942+433.552+58.9166+433.552+60.1083Z" opacity="1" fill="#292827"/>
<path d="M485.552+81.7614L476.899+81.7614L476.899+60.1083C476.899+58.9166+476.469+57.8942+475.609+57.0411C474.749+56.188+473.73+55.7614+472.552+55.7614C471.36+55.7614+470.338+56.188+469.485+57.0411C468.632+57.8942+468.205+58.9166+468.205+60.1083L468.205+81.7614L459.552+81.7614L459.552+51.4146L468.205+51.4146L468.205+55.7614C468.381+54.2989+468.831+53.2088+469.556+52.4911C470.28+51.7734+471.279+51.4146+472.552+51.4146L476.899+51.4146C479.837+51.4146+482.004+52.437+483.399+54.4817C484.076+53.4526+484.956+52.6841+486.039+52.1763C487.123+51.6685+488.409+51.4146+489.899+51.4146L494.205+51.4146C496.575+51.4146+498.616+52.2643+500.329+53.9638C502.042+55.6633+502.899+57.7114+502.899+60.1083L502.899+81.7614L494.205+81.7614L494.205+60.1083C494.205+58.9302+493.778+57.9112+492.925+57.0513C492.072+56.1914+491.063+55.7614+489.899+55.7614C488.707+55.7614+487.685+56.188+486.831+57.0411C485.978+57.8942+485.552+58.9166+485.552+60.1083L485.552+81.7614Z" opacity="1" fill="#292827"/>
<path d="M511.552+51.4146L520.205+51.4146L520.205+55.7614C520.205+54.2989+520.571+53.2088+521.302+52.4911C522.033+51.7734+523.116+51.4146+524.552+51.4146L528.899+51.4146C531.268+51.4146+533.303+52.2711+535.003+53.9841C536.702+55.6971+537.552+57.7385+537.552+60.1083L537.552+73.1083C537.552+75.4781+536.702+77.5127+535.003+79.2122C533.303+80.9117+531.268+81.7614+528.899+81.7614L520.205+81.7614L520.205+90.4146L511.552+90.4146L511.552+51.4146ZM520.205+77.4146L524.552+77.4146C525.73+77.4146+526.749+76.9914+527.609+76.145C528.469+75.2987+528.899+74.2864+528.899+73.1083L528.899+60.1083C528.899+58.9166+528.469+57.8976+527.609+57.0513C526.749+56.2049+525.73+55.7817+524.552+55.7817C523.36+55.7682+522.338+56.188+521.485+57.0411C520.631+57.8942+520.205+58.9166+520.205+60.1083L520.205+77.4146Z" opacity="1" fill="#292827"/>
<path d="M563.552+64.4146L563.552+60.1083C563.552+58.9166+563.122+57.8942+562.262+57.0411C561.402+56.188+560.383+55.7614+559.205+55.7614L554.858+55.7614C552.299+55.7614+550.863+57.2104+550.552+60.1083L546.205+60.1083C546.868+54.3125+549.753+51.4146+554.858+51.4146L563.552+51.4146C565.922+51.4146+567.956+52.2711+569.656+53.9841C571.355+55.6971+572.205+57.7385+572.205+60.1083L572.205+81.7614L563.552+81.7614L563.552+77.4146C563.213+80.3125+561.764+81.7614+559.205+81.7614L554.858+81.7614C552.488+81.7614+550.454+80.9117+548.754+79.2122C547.055+77.5127+546.205+75.4781+546.205+73.1083L546.205+73.0677C546.205+70.6979+547.058+68.6633+548.764+66.9638C550.471+65.2643+552.502+64.4146+554.858+64.4146L563.552+64.4146ZM563.552+68.7614L559.205+68.7614C558.013+68.7614+556.991+69.1846+556.138+70.031C555.285+70.8773+554.858+71.8896+554.858+73.0677L554.858+73.1083C554.858+74.2729+555.281+75.2817+556.128+76.1349C556.974+76.988+558+77.4146+559.205+77.4146C560.41+77.4146+561.436+76.988+562.282+76.1349C563.129+75.2817+563.552+74.2729+563.552+73.1083L563.552+68.7614Z" opacity="1" fill="#292827"/>
<path d="M580.858+81.7614L580.858+51.4146L589.511+51.4146L589.511+55.7614C589.687+54.2989+590.137+53.2088+590.862+52.4911C591.586+51.7734+592.585+51.4146+593.858+51.4146L598.205+51.4146C600.575+51.4146+602.609+52.2711+604.309+53.9841C606.008+55.6971+606.858+57.7385+606.858+60.1083L606.858+81.7614L598.205+81.7614L598.205+60.1083C598.205+58.9166+597.775+57.8942+596.915+57.0411C596.055+56.188+595.036+55.7614+593.858+55.7614C592.666+55.7614+591.644+56.188+590.791+57.0411C589.938+57.8942+589.511+58.9166+589.511+60.1083L589.511+81.7614L580.858+81.7614Z" opacity="1" fill="#292827"/>
<path d="M619.858+86.1083C620.061+88.9791+621.497+90.4146+624.164+90.4146L628.511+90.4146C629.689+90.4146+630.708+89.9914+631.568+89.145C632.428+88.2987+632.858+87.2864+632.858+86.1083L632.858+77.4146C632.52+80.3125+631.071+81.7614+628.511+81.7614L624.164+81.7614C621.795+81.7614+619.76+80.9117+618.06+79.2122C616.361+77.5127+615.511+75.4781+615.511+73.1083L615.511+51.4146L624.164+51.4146L624.164+73.1083C624.164+74.2729+624.587+75.2817+625.434+76.1349C626.28+76.988+627.306+77.4146+628.511+77.4146C629.716+77.4146+630.742+76.988+631.589+76.1349C632.435+75.2817+632.858+74.2729+632.858+73.1083L632.858+51.4146L641.511+51.4146L641.511+86.1083C641.511+88.4646+640.655+90.4958+638.942+92.2021C637.229+93.9083+635.201+94.7614+632.858+94.7614L624.164+94.7614C619.059+94.7614+616.175+91.8771+615.511+86.1083L619.858+86.1083Z" opacity="1" fill="#292827"/>
</g>
<g opacity="1">
<path d="M164.82+118.402L164.82+100.631L160.382+100.631L160.382+98.4022L173.716+98.4022L173.716+100.631L169.278+100.631L169.278+118.402L164.82+118.402Z" opacity="1" fill="#292827"/>
<path d="M189.278+111.736L180.382+111.736L180.382+113.965C180.382+114.562+180.599+115.079+181.033+115.517C181.467+115.954+181.993+116.173+182.611+116.173L184.841+116.173C186.313+116.173+187.049+115.437+187.049+113.965L189.278+113.965C188.931+116.923+187.452+118.402+184.841+118.402L180.382+118.402C179.167+118.402+178.124+117.966+177.252+117.095C176.38+116.223+175.945+115.18+175.945+113.965L175.945+107.298C175.945+106.069+176.382+105.019+177.257+104.147C178.132+103.275+179.174+102.84+180.382+102.84L184.841+102.84C186.056+102.84+187.099+103.279+187.971+104.157C188.842+105.036+189.278+106.083+189.278+107.298L189.278+111.736ZM180.382+109.506L184.841+109.506L184.841+107.298C184.841+106.687+184.62+106.163+184.179+105.725C183.738+105.288+183.216+105.069+182.611+105.069C182+105.069+181.476+105.288+181.038+105.725C180.601+106.163+180.382+106.687+180.382+107.298L180.382+109.506Z" opacity="1" fill="#292827"/>
<path d="M204.82+107.298L202.611+107.298C202.438+105.812+201.695+105.069+200.382+105.069C199.771+105.069+199.247+105.288+198.809+105.725C198.372+106.163+198.153+106.687+198.153+107.298L198.153+113.965C198.153+114.562+198.37+115.079+198.804+115.517C199.238+115.954+199.764+116.173+200.382+116.173C201.695+116.173+202.438+115.437+202.611+113.965L204.82+113.965C204.639+116.923+203.16+118.402+200.382+118.402L198.153+118.402C196.938+118.402+195.894+117.966+195.023+117.095C194.151+116.223+193.716+115.18+193.716+113.965L193.716+107.298C193.716+106.069+194.153+105.019+195.028+104.147C195.903+103.275+196.945+102.84+198.153+102.84L200.382+102.84C203.174+102.84+204.653+104.326+204.82+107.298Z" opacity="1" fill="#292827"/>
<path d="M209.278+118.402L209.278+98.4022L213.716+98.4022L213.716+105.069C213.806+104.319+214.037+103.76+214.408+103.392C214.78+103.024+215.292+102.84+215.945+102.84L218.174+102.84C219.389+102.84+220.433+103.279+221.304+104.157C222.176+105.036+222.611+106.083+222.611+107.298L222.611+118.402L218.174+118.402L218.174+107.298C218.174+106.687+217.953+106.163+217.512+105.725C217.071+105.288+216.549+105.069+215.945+105.069C215.334+105.069+214.809+105.288+214.372+105.725C213.934+106.163+213.716+106.687+213.716+107.298L213.716+118.402L209.278+118.402Z" opacity="1" fill="#292827"/>
<path d="M227.049+118.402L227.049+102.84L231.486+102.84L231.486+105.069C231.577+104.319+231.808+103.76+232.179+103.392C232.551+103.024+233.063+102.84+233.716+102.84L235.945+102.84C237.16+102.84+238.203+103.279+239.075+104.157C239.946+105.036+240.382+106.083+240.382+107.298L240.382+118.402L235.945+118.402L235.945+107.298C235.945+106.687+235.724+106.163+235.283+105.725C234.842+105.288+234.32+105.069+233.716+105.069C233.104+105.069+232.58+105.288+232.143+105.725C231.705+106.163+231.486+106.687+231.486+107.298L231.486+118.402L227.049+118.402Z" opacity="1" fill="#292827"/>
<path d="M249.257+102.84L253.716+102.84C254.931+102.84+255.974+103.279+256.846+104.157C257.717+105.036+258.153+106.083+258.153+107.298L258.153+113.965C258.153+115.166+257.717+116.206+256.846+117.085C255.974+117.963+254.931+118.402+253.716+118.402L249.257+118.402C248.042+118.402+246.999+117.966+246.127+117.095C245.255+116.223+244.82+115.18+244.82+113.965L244.82+107.298C244.82+106.069+245.257+105.019+246.132+104.147C247.007+103.275+248.049+102.84+249.257+102.84ZM249.257+107.298L249.257+113.965C249.257+114.562+249.474+115.079+249.908+115.517C250.342+115.954+250.868+116.173+251.486+116.173C252.104+116.173+252.63+115.954+253.065+115.517C253.499+115.079+253.716+114.562+253.716+113.965L253.716+107.298C253.716+106.687+253.495+106.163+253.054+105.725C252.613+105.288+252.091+105.069+251.486+105.069C250.875+105.069+250.351+105.288+249.913+105.725C249.476+106.163+249.257+106.687+249.257+107.298Z" opacity="1" fill="#292827"/>
<path d="M262.591+118.402L262.591+98.4022L267.028+98.4022L267.028+118.402L262.591+118.402Z" opacity="1" fill="#292827"/>
<path d="M275.924+102.84L280.382+102.84C281.597+102.84+282.641+103.279+283.512+104.157C284.384+105.036+284.82+106.083+284.82+107.298L284.82+113.965C284.82+115.166+284.384+116.206+283.512+117.085C282.641+117.963+281.597+118.402+280.382+118.402L275.924+118.402C274.709+118.402+273.665+117.966+272.794+117.095C271.922+116.223+271.486+115.18+271.486+113.965L271.486+107.298C271.486+106.069+271.924+105.019+272.799+104.147C273.674+103.275+274.716+102.84+275.924+102.84ZM275.924+107.298L275.924+113.965C275.924+114.562+276.141+115.079+276.575+115.517C277.009+115.954+277.535+116.173+278.153+116.173C278.771+116.173+279.297+115.954+279.731+115.517C280.165+115.079+280.382+114.562+280.382+113.965L280.382+107.298C280.382+106.687+280.162+106.163+279.721+105.725C279.28+105.288+278.757+105.069+278.153+105.069C277.542+105.069+277.018+105.288+276.58+105.725C276.143+106.163+275.924+106.687+275.924+107.298Z" opacity="1" fill="#292827"/>
<path d="M302.591+102.84L302.591+120.631C302.591+121.84+302.151+122.881+301.273+123.756C300.394+124.631+299.354+125.069+298.153+125.069L293.695+125.069C291.077+125.069+289.597+123.59+289.257+120.631L291.486+120.631C291.591+122.104+292.327+122.84+293.695+122.84L295.924+122.84C296.528+122.84+297.051+122.623+297.492+122.189C297.933+121.755+298.153+121.236+298.153+120.631L298.153+116.173C297.979+117.659+297.236+118.402+295.924+118.402L293.695+118.402C292.479+118.402+291.436+117.966+290.565+117.095C289.693+116.223+289.257+115.18+289.257+113.965L289.257+107.298C289.257+106.069+289.695+105.019+290.57+104.147C291.445+103.275+292.486+102.84+293.695+102.84L302.591+102.84ZM298.153+105.069L295.924+105.069C295.313+105.069+294.788+105.288+294.351+105.725C293.913+106.163+293.695+106.687+293.695+107.298L293.695+113.965C293.695+114.562+293.912+115.079+294.346+115.517C294.78+115.954+295.306+116.173+295.924+116.173C296.542+116.173+297.068+115.954+297.502+115.517C297.936+115.079+298.153+114.562+298.153+113.965L298.153+105.069Z" opacity="1" fill="#292827"/>
<path d="M309.257+120.631C309.361+122.104+310.097+122.84+311.466+122.84L313.695+122.84C314.299+122.84+314.821+122.623+315.262+122.189C315.703+121.755+315.924+121.236+315.924+120.631L315.924+116.173C315.75+117.659+315.007+118.402+313.695+118.402L311.466+118.402C310.25+118.402+309.207+117.966+308.335+117.095C307.464+116.223+307.028+115.18+307.028+113.965L307.028+102.84L311.466+102.84L311.466+113.965C311.466+114.562+311.683+115.079+312.117+115.517C312.551+115.954+313.077+116.173+313.695+116.173C314.313+116.173+314.839+115.954+315.273+115.517C315.707+115.079+315.924+114.562+315.924+113.965L315.924+102.84L320.361+102.84L320.361+120.631C320.361+121.84+319.922+122.881+319.044+123.756C318.165+124.631+317.125+125.069+315.924+125.069L311.466+125.069C308.847+125.069+307.368+123.59+307.028+120.631L309.257+120.631Z" opacity="1" fill="#292827"/>
<path d="M342.413+102.84L340.205+102.84C340.011+101.354+339.309+100.611+338.101+100.611C337.323+100.611+336.736+100.798+336.341+101.173C335.945+101.548+335.747+102.107+335.747+102.85C335.747+103.406+335.966+103.927+336.403+104.413L341.111+109.704C341.979+110.677+342.413+111.722+342.413+112.84L342.413+113.965C342.413+115.166+341.979+116.206+341.111+117.085C340.243+117.963+339.198+118.402+337.976+118.402L335.747+118.402C334.275+118.402+333.167+118.031+332.424+117.288C331.681+116.545+331.309+115.437+331.309+113.965L333.538+113.965C333.525+114.118+333.518+114.239+333.518+114.329C333.518+114.933+333.75+115.392+334.216+115.704C334.681+116.017+335.191+116.173+335.747+116.173C336.538+116.173+337.108+115.982+337.455+115.6C337.802+115.218+337.976+114.663+337.976+113.933C337.976+113.371+337.757+112.85+337.32+112.371L332.611+107.1C331.743+106.135+331.309+105.09+331.309+103.965L331.309+102.84C331.309+101.631+331.743+100.59+332.611+99.7147C333.479+98.8397+334.525+98.4022+335.747+98.4022L337.976+98.4022C340.754+98.4022+342.233+99.8814+342.413+102.84Z" opacity="1" fill="#292827"/>
<path d="M351.309+102.84L355.768+102.84C356.983+102.84+358.026+103.279+358.898+104.157C359.769+105.036+360.205+106.083+360.205+107.298L360.205+113.965C360.205+115.166+359.769+116.206+358.898+117.085C358.026+117.963+356.983+118.402+355.768+118.402L351.309+118.402C350.094+118.402+349.051+117.966+348.179+117.095C347.308+116.223+346.872+115.18+346.872+113.965L346.872+107.298C346.872+106.069+347.309+105.019+348.184+104.147C349.059+103.275+350.101+102.84+351.309+102.84ZM351.309+107.298L351.309+113.965C351.309+114.562+351.526+115.079+351.96+115.517C352.394+115.954+352.92+116.173+353.538+116.173C354.157+116.173+354.683+115.954+355.117+115.517C355.551+115.079+355.768+114.562+355.768+113.965L355.768+107.298C355.768+106.687+355.547+106.163+355.106+105.725C354.665+105.288+354.143+105.069+353.538+105.069C352.927+105.069+352.403+105.288+351.966+105.725C351.528+106.163+351.309+106.687+351.309+107.298Z" opacity="1" fill="#292827"/>
<path d="M364.643+118.402L364.643+98.4022L369.08+98.4022L369.08+118.402L364.643+118.402Z" opacity="1" fill="#292827"/>
<path d="M386.872+102.84L386.872+118.402L382.434+118.402L382.434+116.173C382.261+117.659+381.518+118.402+380.205+118.402L377.976+118.402C376.761+118.402+375.717+117.966+374.846+117.095C373.974+116.223+373.538+115.18+373.538+113.965L373.538+102.84L377.976+102.84L377.976+113.965C377.976+114.562+378.193+115.079+378.627+115.517C379.061+115.954+379.587+116.173+380.205+116.173C380.823+116.173+381.349+115.954+381.783+115.517C382.217+115.079+382.434+114.562+382.434+113.965L382.434+102.84L386.872+102.84Z" opacity="1" fill="#292827"/>
<path d="M393.538+98.4022L397.976+98.4022L397.976+102.84L400.205+102.84L400.205+105.069L397.976+105.069L397.976+113.965C397.976+114.68+398.212+115.227+398.684+115.605C399.157+115.984+399.594+116.173+399.997+116.173L400.205+116.173L400.205+118.402L397.976+118.402C396.754+118.402+395.709+117.966+394.841+117.095C393.972+116.223+393.538+115.18+393.538+113.965L393.538+105.069L391.309+105.069L391.309+102.84L393.538+102.84L393.538+98.4022Z" opacity="1" fill="#292827"/>
<path d="M404.643+100.631L404.643+98.4022L409.08+98.4022L409.08+100.631L404.643+100.631ZM404.643+118.402L404.643+102.84L409.08+102.84L409.08+118.402L404.643+118.402Z" opacity="1" fill="#292827"/>
<path d="M417.976+102.84L422.434+102.84C423.65+102.84+424.693+103.279+425.564+104.157C426.436+105.036+426.872+106.083+426.872+107.298L426.872+113.965C426.872+115.166+426.436+116.206+425.564+117.085C424.693+117.963+423.65+118.402+422.434+118.402L417.976+118.402C416.761+118.402+415.717+117.966+414.846+117.095C413.974+116.223+413.538+115.18+413.538+113.965L413.538+107.298C413.538+106.069+413.976+105.019+414.851+104.147C415.726+103.275+416.768+102.84+417.976+102.84ZM417.976+107.298L417.976+113.965C417.976+114.562+418.193+115.079+418.627+115.517C419.061+115.954+419.587+116.173+420.205+116.173C420.823+116.173+421.349+115.954+421.783+115.517C422.217+115.079+422.434+114.562+422.434+113.965L422.434+107.298C422.434+106.687+422.214+106.163+421.773+105.725C421.332+105.288+420.809+105.069+420.205+105.069C419.594+105.069+419.07+105.288+418.632+105.725C418.195+106.163+417.976+106.687+417.976+107.298Z" opacity="1" fill="#292827"/>
<path d="M431.309+118.402L431.309+102.84L435.747+102.84L435.747+105.069C435.837+104.319+436.068+103.76+436.439+103.392C436.811+103.024+437.323+102.84+437.976+102.84L440.205+102.84C441.42+102.84+442.464+103.279+443.335+104.157C444.207+105.036+444.643+106.083+444.643+107.298L444.643+118.402L440.205+118.402L440.205+107.298C440.205+106.687+439.985+106.163+439.544+105.725C439.103+105.288+438.58+105.069+437.976+105.069C437.365+105.069+436.841+105.288+436.403+105.725C435.966+106.163+435.747+106.687+435.747+107.298L435.747+118.402L431.309+118.402Z" opacity="1" fill="#292827"/>
</g>
<g opacity="1">
<path d="M75.4033+31.091L75.4379+31.0723L75.4379+1.65102L75.4033+1.67102L75.4033+31.0723L75.4033+31.091" opacity="1" fill="#cde31d"/>
<path d="M75.4379+143.58L75.4259+143.574L75.4259+143.58L41.5633+124.035L26.7059+115.462L26.7059+115.438L26.6886+115.462L1.24328+130.144L1.24328+130.164L75.4379+173.003L149.633+130.164L124.153+115.462L75.438+143.58" opacity="1" fill="#033f70"/>
<path d="M124.153+59.191L124.153+115.462L149.633+130.164L149.633+44.4883L75.438+1.65102L75.438+31.0723L124.153+59.191" opacity="1" fill="#58a1dd"/>
<path d="M1.24329+130.144L26.6886+115.462L26.706+115.438L26.706+59.191L75.4033+31.091L75.4033+31.0724L75.4033+1.67102L75.4033+1.65102L1.20862+44.4884L1.20862+130.164L1.24329+130.144" opacity="1" fill="#3277b0"/>
<path d="M53.3299+111.282L43.6379+105.686L43.6379+68.9657L75.4273+87.327L75.4273+124.031L75.4339+124.035L75.4339+87.327L107.223+68.9657L75.4339+50.619L75.4126+50.6297L43.6353+68.9657L43.6353+105.671L43.6353+105.686L53.3299+111.282" opacity="1" fill="#a8cced"/>
<path d="M75.4339+87.327L75.4339+124.035L107.223+105.686L107.223+68.9657L75.4339+87.327" opacity="1" fill="#115fa0"/>
<path d="M43.6379+68.9657L43.6379+105.686L53.3299+111.282L75.4273+124.035L75.4273+124.031L75.4273+87.327L43.6379+68.9657" opacity="1" fill="#58a1dd"/>
</g>
</g>
</g>
</svg>
